PathFileType	4	(X/Y/Z)	SUBJ36_1_walk_RCNL2025.trc
DataRate	CameraRate	NumFrames	NumMarkers	Units	OrigDataRate	OrigDataStartFrame	OrigNumFrames
100	100	12	25	mm	100	142	378
Frame#	Time	R_Shoulder			L_Shoulder			C7			J_Notch			R_Elbow			L_Elbow			R_Wrist			L_Wrist			R_Asis			L_Asis			Sacral			Thoracic			Sternum			R_Thigh_Lateral			R_Knee_Lateral			R_Shank_Lateral			R_Ankle_Lateral			R_Heel			R_Toe			L_Thigh_Lateral			L_Knee_Lateral			L_Shank_Lateral			L_Ankle_Lateral			L_Heel			L_Toe		
		X1	Y1	Z1	X2	Y2	Z2	X3	Y3	Z3	X4	Y4	Z4	X5	Y5	Z5	X6	Y6	Z6	X7	Y7	Z7	X8	Y8	Z8	X9	Y9	Z9	X10	Y10	Z10	X11	Y11	Z11	X12	Y12	Z12	X13	Y13	Z13	X14	Y14	Z14	X15	Y15	Z15	X16	Y16	Z16	X17	Y17	Z17	X18	Y18	Z18	X19	Y19	Z19	X20	Y20	Z20	X21	Y21	Z21	X22	Y22	Z22	X23	Y23	Z23	X24	Y24	Z24	X25	Y25	Z25
142	1.41000000	431.280426	1323.890625	-128.298721	473.316071	1299.003906	-470.452484	385.220764	1378.362793	-296.797028	522.834961	1272.031250	-281.492950	331.948090	1015.224609	-57.969456	449.821228	982.254517	-525.479431	369.396271	782.818817	-7.960742	576.508301	785.756531	-501.135452	495.071198	885.998718	-166.185226	513.785217	883.552490	-398.179138	284.227173	871.941284	-285.893799	300.726318	1123.958252	-301.556854	550.020386	1091.118774	-265.735046	542.085327	488.369812	-121.170006	574.317993	437.350800	-166.230835	615.991089	233.241333	-128.601776	673.215698	71.284767	-197.070160	634.557190	36.510509	-244.693436	795.270020	71.320686	-220.991150	310.179626	522.503601	-479.499512	282.495117	450.707825	-407.519043	164.682541	271.514282	-441.132935	87.743713	118.843071	-370.394501	41.022163	107.381874	-317.042633	197.057800	46.072575	-345.615479
143	1.42000000	443.495239	1323.452271	-125.979446	485.840485	1299.205444	-468.217926	397.375732	1378.251343	-294.472595	535.331848	1272.327637	-279.164093	343.992798	1014.628845	-56.314949	462.272583	982.442139	-523.409851	381.340622	782.114227	-6.653404	588.513275	785.635956	-499.211716	508.956299	885.902588	-164.646530	527.770142	882.471008	-396.398834	297.958344	871.947571	-284.435760	313.832001	1123.578003	-299.746429	563.175659	1091.504639	-263.674683	557.638550	489.614655	-119.897919	588.051331	437.596924	-165.453018	625.001282	232.860275	-129.145264	677.645813	70.083923	-197.569458	637.455505	37.175304	-245.159271	799.579773	65.422653	-221.931168	323.144165	522.196716	-478.299133	295.995514	450.095459	-406.889252	173.288681	274.730164	-441.363098	92.499779	123.628838	-371.694946	45.763912	113.638512	-318.341949	198.594299	45.806774	-346.031525
144	1.43000000	455.840576	1323.218872	-123.649773	498.566101	1299.603516	-465.946594	409.711212	1378.452393	-292.141418	547.949341	1272.895874	-276.769806	356.267517	1014.245972	-54.626034	474.546051	982.860352	-521.327515	393.645477	781.633392	-5.338017	600.266693	785.677002	-497.325790	522.768921	886.297607	-162.955246	541.765320	881.528259	-394.417755	311.700958	872.222412	-283.108185	327.025879	1123.525391	-298.017151	576.429993	1092.175171	-261.544678	573.107788	491.257263	-118.516975	601.806213	438.287109	-164.553757	633.737793	232.901535	-129.478561	681.192993	69.260529	-197.993530	639.497620	38.129326	-245.535889	802.967285	60.024220	-222.656174	336.663696	521.825012	-476.890869	310.423004	449.332001	-406.168243	182.674744	278.207825	-441.444794	98.131966	128.755569	-372.843719	51.596081	120.371033	-319.405426	200.331451	45.473270	-346.316040
145	1.44000000	468.262512	1323.239868	-121.340630	511.487885	1300.212036	-463.641113	422.188599	1378.957520	-289.841827	560.650574	1273.728638	-274.327209	368.798676	1014.113586	-52.911854	486.650696	983.533508	-519.243652	406.335953	781.419678	-4.012160	611.765350	785.902527	-495.477692	536.452454	887.210815	-161.111298	555.685974	880.765564	-392.237366	325.419464	872.744202	-281.919617	340.265717	1123.782593	-296.410553	589.737427	1093.130005	-259.338593	588.303040	493.175262	-117.050232	615.455261	439.338501	-163.555984	642.354126	233.247192	-129.492355	684.014648	68.768440	-198.357895	640.939697	39.202721	-245.820389	805.575867	55.481682	-223.224075	350.861694	521.305481	-475.324493	325.888641	448.340271	-405.388794	193.049881	281.866272	-441.389862	104.806984	134.201126	-373.800446	58.669685	127.606956	-320.195923	202.320847	45.115795	-346.419342
146	1.45000000	480.696747	1323.559082	-119.079330	524.576172	1301.038696	-461.302032	434.743591	1379.729614	-287.605530	573.390747	1274.803101	-271.860596	381.598511	1014.254761	-51.183773	498.597534	984.479126	-517.173401	419.431732	781.510132	-2.673325	623.003448	786.331299	-493.659683	549.973450	888.610168	-159.139877	569.449402	880.211548	-389.875580	339.073456	873.465698	-280.856842	353.516174	1124.308838	-294.945862	603.048340	1094.347046	-257.049255	603.000854	495.184753	-115.535767	628.777832	440.592255	-162.500244	650.847473	233.701340	-129.163757	686.222290	68.523186	-198.687119	641.960938	40.247894	-246.032425	807.523254	51.953033	-223.698578	365.855011	520.527954	-473.660614	342.480225	447.023804	-404.581207	204.620819	285.581451	-441.223022	112.679977	139.932602	-374.539062	67.103127	135.364685	-320.710907	204.628632	44.820118	-346.314789
147	1.46000000	493.087128	1324.201172	-116.886391	537.774109	1302.080078	-458.935608	447.300354	1380.711060	-285.451294	586.121948	1276.084106	-269.400574	394.655823	1014.671204	-49.452778	510.392914	985.696411	-515.131348	432.943130	781.920746	-1.317528	633.980011	786.972198	-491.863205	563.315369	890.403992	-157.086838	582.981079	879.867737	-387.366608	352.613159	874.319458	-279.882355	366.744965	1125.053101	-293.618134	616.311035	1095.785522	-254.671173	616.927368	497.079193	-114.019463	641.478760	441.855865	-161.426941	659.027405	234.085266	-128.557678	687.916077	68.441925	-198.996613	642.684387	41.168182	-246.195190	808.926147	49.418015	-224.112839	381.760406	519.357300	-471.964020	360.251343	445.281647	-403.764709	217.574188	289.196655	-440.978455	121.873489	145.917328	-375.049225	76.967949	143.654419	-320.978210	207.344116	44.724606	-346.014099
148	1.47000000	505.398956	1325.160767	-114.774094	551.002991	1303.317627	-456.559662	459.791565	1381.839600	-283.384003	598.799561	1277.528687	-266.981842	407.936035	1015.342651	-47.728073	522.034729	987.159302	-513.126526	446.859253	782.636292	0.056515	644.705261	787.815826	-490.086624	576.470276	892.461792	-155.004074	596.221680	879.706177	-384.760651	365.980896	875.232788	-278.939667	379.918762	1125.964111	-292.400482	629.474976	1097.393555	-252.205338	629.782776	498.673279	-112.538452	653.253601	442.952179	-160.353683	666.566956	234.301941	-127.786072	689.190857	68.452873	-199.284973	643.193970	41.918549	-246.323349	809.898010	47.735352	-224.463196	398.694641	517.660034	-470.296234	379.216125	443.034302	-402.947357	232.059830	292.544312	-440.693054	132.455902	152.139542	-375.326447	88.283585	152.475174	-321.031891	210.589798	45.020458	-345.575592
149	1.48000000	517.621460	1326.402954	-112.746674	564.172241	1304.717896	-454.204498	472.174225	1383.063232	-281.399017	611.388672	1279.088623	-264.639587	421.392151	1016.228333	-46.015518	533.513794	988.817932	-511.162781	461.144241	783.611603	1.442999	655.197510	788.827972	-488.333771	589.434753	894.639893	-152.937485	609.133484	879.679810	-382.121521	379.118591	876.146790	-277.963806	393.001099	1126.999512	-291.250793	642.495850	1099.114746	-249.664322	641.313354	499.838104	-111.105774	663.865112	443.754089	-159.267441	673.124634	234.340118	-126.954308	690.127441	68.495682	-199.537079	643.546570	42.492523	-246.419632	810.541382	46.711552	-224.731049	416.758179	515.349426	-468.705597	399.348724	440.254730	-402.129303	248.169876	295.477844	-440.395935	144.431824	158.612900	-375.358521	101.027458	161.802078	-320.881958	214.534546	45.936680	-345.103333
150	1.49000000	529.764771	1327.870483	-110.802437	577.192078	1306.235107	-451.909790	484.433807	1384.346191	-279.487854	623.867981	1280.715820	-262.406250	434.976379	1017.272644	-44.315201	544.818665	990.606750	-509.241760	475.754349	784.786041	2.833200	665.474396	789.953613	-486.610916	602.204895	896.801758	-150.925064	621.704407	879.739868	-379.520294	391.976532	877.031738	-276.891052	405.953583	1128.132202	-290.120758	655.340088	1100.893555	-247.075912	651.399780	500.526245	-109.705917	673.197998	444.201599	-158.136734	678.470581	234.237473	-126.127464	690.790955	68.525093	-199.733185	643.781738	42.908348	-246.478241	810.943542	46.154850	-224.901443	436.008484	512.428711	-467.218140	420.585999	436.995483	-401.303345	265.917480	297.910492	-440.096985	157.754929	165.376678	-375.117981	115.157982	171.563187	-320.494751	219.410492	47.704067	-344.736725
151	1.50000000	541.855591	1329.494019	-108.937912	589.984497	1307.818359	-449.719055	496.578827	1385.669556	-277.642731	636.229492	1282.367065	-260.309998	448.645264	1018.415100	-42.620872	555.940735	992.453857	-507.363831	490.664062	786.102386	4.223395	675.548126	791.130493	-484.928864	614.773743	898.833374	-148.998306	633.946716	879.853516	-377.026093	404.520752	877.895447	-275.666016	418.739166	1129.350586	-288.962646	667.987427	1102.681030	-244.484756	660.110962	500.781708	-108.304359	681.273987	444.303497	-156.932968	682.555786	234.038757	-125.327484	691.236816	68.512878	-199.858017	643.929382	43.198746	-246.491669	811.177002	45.902382	-224.967194	456.435364	509.016937	-465.834717	442.830902	433.402863	-400.454437	285.226318	299.847656	-439.778473	172.360458	172.470749	-374.566559	130.634903	181.613800	-319.794769	225.523438	50.500340	-344.628479
152	1.51000000	553.931274	1331.202271	-107.151619	602.490601	1309.420410	-447.673370	508.630096	1387.027222	-275.857941	648.473877	1284.008545	-258.374084	462.361603	1019.602478	-40.922565	566.876465	994.291870	-505.528198	505.870529	787.516632	5.612703	685.424988	792.301636	-483.304001	627.134644	900.660156	-147.179352	645.892029	880.017029	-374.695587	416.737213	878.780212	-274.245667	431.325623	1130.655029	-287.732880	680.429443	1104.438477	-241.952515	667.687073	500.724274	-106.865669	688.225952	444.124725	-155.645798	685.508545	233.774994	-124.549011	691.516968	68.446732	-199.906006	644.015442	43.403400	-246.455963	811.301331	45.829048	-224.931107	477.940765	505.348419	-464.533051	465.955688	429.710938	-399.563477	305.937164	301.394989	-439.394867	188.198547	179.898804	-373.672058	147.421539	191.726364	-318.692719	233.239655	54.395203	-344.912445
153	1.52000000	566.031860	1332.932495	-105.444336	614.673279	1311.004395	-445.805145	520.610168	1388.423340	-274.129181	660.605530	1285.617920	-256.615387	476.097992	1020.797363	-39.208916	577.626465	996.067261	-503.731354	521.371902	788.996185	6.993372	695.105804	793.420166	-481.752701	639.290039	902.255676	-145.475952	657.581055	880.261597	-372.563965	428.632965	879.750488	-272.602631	443.687988	1132.050171	-286.393890	692.664551	1106.139038	-239.555038	674.456055	500.507935	-105.370972	694.250916	443.762634	-154.288483	687.583557	233.464630	-123.777733	691.681458	68.329048	-199.881836	644.062988	43.563465	-246.372513	811.363464	45.846790	-224.808273	500.324615	501.741028	-463.271851	489.805542	426.209930	-398.612396	327.829468	302.735046	-438.882355	205.248062	187.598038	-372.429535	165.470795	201.611435	-317.129944	242.939484	59.322166	-345.667786
